<?xml version="1.0" encoding="UTF-8"?>
<!DOCTYPE svg PUBLIC "-//W3C//DTD SVG 1.1//EN" "http://www.w3.org/Graphics/SVG/1.1/DTD/svg11.dtd">
<!-- Creator: CorelDRAW (Versão de avaliação) -->
<svg xmlns="http://www.w3.org/2000/svg" xml:space="preserve" width="113.147mm" height="32.1422mm" version="1.1" style="shape-rendering:geometricPrecision; text-rendering:geometricPrecision; image-rendering:optimizeQuality; fill-rule:evenodd; clip-rule:evenodd"
viewBox="0 0 11314.72 3214.22"
 xmlns:xlink="http://www.w3.org/1999/xlink"
 xmlns:xodm="http://www.corel.com/coreldraw/odm/2003">
 <defs>
  <style type="text/css">
   <![CDATA[
    .fil1 {fill:#FEFEFE}
    .fil0 {fill:#373435}
   ]]>
  </style>
 </defs>
<symbol id="logo" viewBox="4567.08 1297.39 2180.55 619.44">
 <path class="fil0" d="M5753.3 1667.47l232.96 0 -116.97 -234.26 -115.99 234.26zm-170.63 204.17l259.3 -529.07 54.64 0 262.24 529.07 -71.49 0 -71.82 -142.33 -292.34 0 -70.02 142.33 -70.51 0zm722.27 -319.99l252.92 0c27.81,0 49.08,-6.38 63.64,-18.98 14.72,-12.6 22.08,-30.75 22.08,-54.48 0,-24.86 -7.03,-43.51 -21.26,-56.11 -14.24,-12.43 -35.67,-18.65 -64.46,-18.65l-252.92 0 0 148.22zm0 259.13l276.81 0c30.1,0 53.82,-8.83 71.16,-26.5 17.34,-17.83 26.01,-42.04 26.01,-72.64 0,-30.26 -8.67,-54.47 -26.01,-72.3 -17.34,-17.84 -41.06,-26.83 -71.16,-26.83l-276.81 0 0 198.27zm-65.76 60.86l0 -529.07 312.95 0c52.03,0 91.45,11.13 118.12,33.38 26.67,22.25 40.08,54.97 40.08,98.48 0,21.11 -4.09,39.92 -12.43,56.61 -8.35,16.68 -20.12,30.1 -35.5,40.24 28.14,16.36 49.4,36.32 63.64,59.88 14.39,23.72 21.59,50.71 21.59,81.47 0,48.91 -16.03,87.52 -48.1,116.15 -32.22,28.63 -75.74,42.86 -130.71,42.86l-329.64 0zm-1583.61 -485.76c0,-48.81 39.68,-88.49 88.49,-88.49l530.95 0c48.81,0 88.49,39.68 88.49,88.49l0 353.96 -88.49 0 0 -353.96 -530.95 0 0 353.96 -88.49 0 0 -353.96zm-88.49 424.76c0,-14.66 11.89,-26.54 26.55,-26.54l831.81 0c14.66,0 26.55,11.88 26.55,26.54 0,58.63 -47.56,106.19 -106.2,106.19l-672.53 0c-58.62,0 -106.18,-47.56 -106.18,-106.19zm388.53 -268.52l-42.86 42.86 42.86 42.87c12.99,13 12.99,34.01 0,46.87 -12.99,12.87 -34.02,13 -46.87,0l-66.37 -66.37c-12.99,-12.99 -12.99,-34.02 0,-46.87l66.37 -66.37c12.99,-12.99 34.01,-12.99 46.87,0 12.86,12.99 12.99,34.02 0,46.87l0 0.14zm154.86 -47.01l66.36 66.37c13.01,13 13.01,34.01 0,46.87l-66.36 66.37c-12.99,13 -34.02,13 -46.88,0 -12.85,-12.99 -12.99,-34.02 0,-46.87l42.87 -42.87 -42.87 -42.86c-12.99,-12.99 -12.99,-34.02 0,-46.88 13.01,-12.85 34.02,-12.99 46.88,0l0 -0.13z"/>
</symbol>
 <g id="Camada_x0020_1">
  <metadata id="CorelCorpID_0Corel-Layer"/>
  <path class="fil1" d="M6148.08 1920.84l1208.81 0 -606.95 -1215.56 -601.86 1215.56zm-885.39 1059.43l1345.49 -2745.31 283.52 0 1360.75 2745.31 -370.96 0 -372.67 -738.55 -1516.93 0 -363.33 738.55 -365.87 0zm3747.81 -1660.41l1312.39 0c144.3,0 254.67,-33.11 330.22,-98.49 76.38,-65.38 114.57,-159.56 114.57,-282.69 0,-129 -36.48,-225.77 -110.32,-291.15 -73.89,-64.5 -185.08,-96.78 -334.47,-96.78l-1312.39 0 0 769.11zm0 1344.61l1436.35 0c156.19,0 279.27,-45.82 369.24,-137.51 89.98,-92.52 134.97,-218.14 134.97,-376.92 0,-157.02 -44.99,-282.65 -134.97,-375.16 -89.97,-92.57 -213.05,-139.22 -369.24,-139.22l-1436.35 0 0 1028.81zm-341.22 315.8l0 -2745.31 1623.87 0c269.98,0 474.53,57.75 612.92,173.2 138.39,115.46 207.97,285.24 207.97,511.01 0,109.54 -21.22,207.14 -64.5,293.74 -43.32,86.56 -104.4,156.19 -184.2,208.81 146.01,84.89 256.33,188.46 330.22,310.71 74.67,123.08 112.03,263.13 112.03,422.74 0,253.79 -83.18,454.14 -249.59,602.7 -167.19,148.56 -393.01,222.4 -678.24,222.4l-1710.48 0zm-8217.25 -2520.58c0,-253.27 205.9,-459.17 459.17,-459.17l2755.06 0c253.27,0 459.17,205.9 459.17,459.17l0 1836.67 -459.17 0 0 -1836.67 -2755.06 0 0 1836.67 -459.17 0 0 -1836.67zm-459.17 2204.05c0,-76.07 61.7,-137.71 137.77,-137.71l4316.2 0c76.07,0 137.77,61.64 137.77,137.71 0,304.23 -246.79,551.01 -551.07,551.01l-3489.71 0c-304.17,0 -550.96,-246.78 -550.96,-551.01zm2016.06 -1393.33l-222.4 222.4 222.4 222.45c67.4,67.45 67.4,176.47 0,243.2 -67.41,66.78 -176.53,67.46 -243.21,0l-344.39 -344.39c-67.4,-67.4 -67.4,-176.53 0,-243.2l344.39 -344.39c67.41,-67.41 176.48,-67.41 243.21,0 66.73,67.4 67.4,176.52 0,243.2l0 0.73zm803.55 -243.93l344.34 344.39c67.51,67.45 67.51,176.47 0,243.2l-344.34 344.39c-67.4,67.46 -176.52,67.46 -243.25,0 -66.68,-67.4 -67.41,-176.53 0,-243.2l222.45 -222.45 -222.45 -222.4c-67.41,-67.41 -67.41,-176.53 0,-243.26 67.51,-66.68 176.53,-67.4 243.25,0l0 -0.67z"/>
 </g>
</svg>
